<svg id="Capa_1" enable-background="new 0 0 512 512" height="512" viewBox="0 0 512 512" width="512" xmlns="http://www.w3.org/2000/svg"><g><g><path d="m214.374 266.406h-99.902v-91.661c0-4.552 3.69-8.241 8.241-8.241h83.42c4.552 0 8.241 3.69 8.241 8.241z" fill="#ecc373"/><path d="m214.374 266.406h-24.976v-99.902h16.734c4.552 0 8.241 3.69 8.241 8.241v91.661z" fill="#dab46b"/><path d="m174.892 199.805h-20.939c-3.414 0-6.181-2.767-6.181-6.181v-27.12h33.301v27.12c0 3.414-2.767 6.181-6.181 6.181z" fill="#f4e2c1"/></g><g><path d="m297.626 266.406h99.902v-91.661c0-4.552-3.69-8.241-8.241-8.241h-83.42c-4.552 0-8.241 3.69-8.241 8.241z" fill="#ecc373"/><path d="m397.528 266.406h-24.976v-99.902h16.734c4.552 0 8.241 3.69 8.241 8.241v91.661z" fill="#dab46b"/><path d="m337.108 199.805h20.939c3.414 0 6.181-2.767 6.181-6.181v-27.12h-33.301v27.12c0 3.414 2.767 6.181 6.181 6.181z" fill="#f4e2c1"/></g><path d="m72.846 266.406h366.309v33.301h-366.309z" fill="#dddaec"/><path d="m72.846 266.406h24.976v33.301h-24.976z" fill="#d0cee7"/><path d="m414.179 266.406h24.976v33.301h-24.976z" fill="#d0cee7"/><path d="m72.846 99.902h366.309v33.301h-366.309z" fill="#dddaec"/><path d="m72.846 99.902h24.976v33.301h-24.976z" fill="#d0cee7"/><path d="m414.179 99.902h24.976v33.301h-24.976z" fill="#d0cee7"/><path d="m64.604 512h-16.818c-4.552 0-8.241-3.69-8.241-8.241v-37.547h33.301v37.547c0 4.551-3.69 8.241-8.242 8.241z" fill="#407093"/><path d="m464.214 512h-16.818c-4.552 0-8.241-3.69-8.241-8.241v-37.547h33.301v37.547c-.001 4.551-3.691 8.241-8.242 8.241z" fill="#407093"/><path d="m72.846 466.211h-33.301v-457.97c0-4.551 3.69-8.241 8.241-8.241h16.818c4.552 0 8.241 3.69 8.241 8.241v457.97z" fill="#c17d4f"/><path d="m472.455 466.211h-33.301v-457.97c0-4.552 3.69-8.241 8.241-8.241h16.818c4.552 0 8.241 3.69 8.241 8.241v457.97z" fill="#c17d4f"/><g><path d="m206.049 432.911h-99.902v-91.661c0-4.552 3.69-8.241 8.241-8.241h83.42c4.552 0 8.241 3.69 8.241 8.241z" fill="#ecc373"/><path d="m206.049 432.911h-24.976v-99.902h16.734c4.552 0 8.241 3.69 8.241 8.241v91.661z" fill="#dab46b"/><path d="m166.567 366.309h-20.939c-3.414 0-6.181-2.767-6.181-6.181v-27.12h33.301v27.12c0 3.414-2.767 6.181-6.181 6.181z" fill="#f4e2c1"/></g><g><path d="m405.854 432.911h-99.902v-91.661c0-4.552 3.69-8.241 8.241-8.241h83.42c4.552 0 8.241 3.69 8.241 8.241z" fill="#ecc373"/><path d="m405.854 432.911h-24.976v-99.902h16.734c4.552 0 8.241 3.69 8.241 8.241v91.661z" fill="#dab46b"/><path d="m366.372 366.309h-20.939c-3.414 0-6.181-2.767-6.181-6.181v-27.12h33.301v27.12c0 3.414-2.768 6.181-6.181 6.181z" fill="#f4e2c1"/></g><g><path d="m206.049 432.911h99.902v-91.661c0-4.552-3.69-8.241-8.241-8.241h-83.42c-4.552 0-8.241 3.69-8.241 8.241z" fill="#ecc373"/><path d="m305.951 432.911h-24.976v-99.902h16.734c4.552 0 8.241 3.69 8.241 8.241v91.661z" fill="#dab46b"/><path d="m245.531 366.309h20.939c3.414 0 6.181-2.767 6.181-6.181v-27.12h-33.301v27.12c0 3.414 2.767 6.181 6.181 6.181z" fill="#f4e2c1"/></g><g><path d="m206.049 99.902h-99.902v-91.661c0-4.552 3.69-8.241 8.241-8.241h83.42c4.552 0 8.241 3.69 8.241 8.241z" fill="#ecc373"/><path d="m206.049 99.902h-24.976v-99.902h16.734c4.552 0 8.241 3.69 8.241 8.241v91.661z" fill="#dab46b"/><path d="m166.567 33.301h-20.939c-3.414 0-6.181-2.767-6.181-6.181v-27.12h33.301v27.12c0 3.413-2.767 6.181-6.181 6.181z" fill="#f4e2c1"/></g><g><path d="m405.854 99.902h-99.902v-91.661c0-4.552 3.69-8.241 8.241-8.241h83.42c4.552 0 8.241 3.69 8.241 8.241z" fill="#ecc373"/><path d="m405.854 99.902h-24.976v-99.902h16.734c4.552 0 8.241 3.69 8.241 8.241v91.661z" fill="#dab46b"/><path d="m366.372 33.301h-20.939c-3.414 0-6.181-2.767-6.181-6.181v-27.12h33.301v27.12c0 3.413-2.768 6.181-6.181 6.181z" fill="#f4e2c1"/></g><g><path d="m206.049 99.902h99.902v-91.661c0-4.552-3.69-8.241-8.241-8.241h-83.42c-4.552 0-8.241 3.69-8.241 8.241z" fill="#ecc373"/><path d="m305.951 99.902h-24.976v-99.902h16.734c4.552 0 8.241 3.69 8.241 8.241v91.661z" fill="#dab46b"/><path d="m245.531 33.301h20.939c3.414 0 6.181-2.767 6.181-6.181v-27.12h-33.301v27.12c0 3.413 2.767 6.181 6.181 6.181z" fill="#f4e2c1"/></g><path d="m72.846 432.911h366.309v33.301h-366.309z" fill="#dddaec"/><g fill="#d0cee7"><path d="m414.179 432.911h24.976v33.301h-24.976z"/><path d="m72.846 432.911h24.976v33.301h-24.976z"/></g></g></svg>